{
    "asset" : {
        "generator" : "Khronos glTF Blender I/O v1.8.19",
        "version" : "2.0"
    },
    "scene" : 0,
    "scenes" : [
        {
            "name" : "Scene",
            "nodes" : [
                0
            ]
        }
    ],
    "nodes" : [
        {
            "mesh" : 0,
            "name" : "Cylinder",
            "scale" : [
                1.2999204397201538,
                0.11250855028629303,
                1.2999204397201538
            ]
        }
    ],
    "materials" : [
        {
            "doubleSided" : true,
            "name" : "Material.001",
            "pbrMetallicRoughness" : {
                "baseColorFactor" : [
                    0.800000011920929,
                    0.800000011920929,
                    0.800000011920929,
                    1
                ],
                "metallicFactor" : 0,
                "roughnessFactor" : 0.5
            }
        }
    ],
    "meshes" : [
        {
            "name" : "Cylinder",
            "primitives" : [
                {
                    "attributes" : {
                        "POSITION" : 0,
                        "NORMAL" : 1,
                        "TEXCOORD_0" : 2
                    },
                    "indices" : 3,
                    "material" : 0
                }
            ]
        }
    ],
    "accessors" : [
        {
            "bufferView" : 0,
            "componentType" : 5126,
            "count" : 427,
            "max" : [
                1.1420350074768066,
                55.7642707824707,
                1.142034888267517
            ],
            "min" : [
                -1.1420347690582275,
                -1,
                -1.142034888267517
            ],
            "type" : "VEC3"
        },
        {
            "bufferView" : 1,
            "componentType" : 5126,
            "count" : 427,
            "type" : "VEC3"
        },
        {
            "bufferView" : 2,
            "componentType" : 5126,
            "count" : 427,
            "type" : "VEC2"
        },
        {
            "bufferView" : 3,
            "componentType" : 5123,
            "count" : 2100,
            "type" : "SCALAR"
        }
    ],
    "bufferViews" : [
        {
            "buffer" : 0,
            "byteLength" : 5124,
            "byteOffset" : 0
        },
        {
            "buffer" : 0,
            "byteLength" : 5124,
            "byteOffset" : 5124
        },
        {
            "buffer" : 0,
            "byteLength" : 3416,
            "byteOffset" : 10248
        },
        {
            "buffer" : 0,
            "byteLength" : 4200,
            "byteOffset" : 13664
        }
    ],
    "buffers" : [
        {
            "byteLength" : 17864,
            "uri" : "data:application/octet-stream;base64,"
        }
    ]
}
